<?xml version="1.0" encoding="UTF-8"?>
<svg width="214px" height="51px" viewBox="0 0 214 51" version="1.1" xmlns="http://www.w3.org/2000/svg" xmlns:xlink="http://www.w3.org/1999/xlink">
    <!-- Generator: sketchtool 50.2 (55047) - http://www.bohemiancoding.com/sketch -->
    <title>6871A34C-A989-4DBE-93DA-AF303E429854</title>
    <desc>Created with sketchtool.</desc>
    <defs>
        <polygon id="path-1" points="0.493066667 0.0628 16.2197333 0.0628 16.2197333 18.6666667 0.493066667 18.6666667"></polygon>
        <polygon id="path-3" points="0.648 0.527133333 16.4386667 0.527133333 16.4386667 25.3333333 0.648 25.3333333"></polygon>
        <polygon id="path-5" points="0.156666667 0.474133333 13.5486667 0.474133333 13.5486667 19.3333333 0.156666667 19.3333333"></polygon>
        <polygon id="path-7" points="0.0438 0.0334666667 10.2718 0.0334666667 10.2718 22.6666667 0.0438 22.6666667"></polygon>
    </defs>
    <g id="Page-1" stroke="none" stroke-width="1" fill="none" fill-rule="evenodd">
        <g id="Home" transform="translate(-40.000000, -40.000000)">
            <g id="Group-6" transform="translate(40.000000, 40.000000)">
                <g id="Group" fill="#4C9142">
                    <g id="Page-1">
                        <g id="Group-3" transform="translate(0.000000, 0.130161)">
                            <path d="M37.3872748,28.8838579 C35.9590131,30.3121196 34.0848449,31.0238953 32.2122467,31.0207551 L17.6203215,31.0207551 C15.7534804,31.0207551 13.8861159,30.3084561 12.4615178,28.8838579 C9.6123215,26.0346617 9.6123215,21.4149234 12.4615178,18.5657271 C13.8861159,17.141129 15.7534804,16.4288299 17.6203215,16.4288299 C17.6203215,14.5614654 18.3331439,12.6941009 19.7566953,11.2695028 C22.6074617,8.42030654 27.2266766,8.42030654 30.0758729,11.2695028 C31.500471,12.6935776 32.2122467,14.5614654 32.2122467,16.4288299 L32.2122467,16.4293533 C34.0848449,16.4251664 35.9590131,17.1369421 37.3872748,18.5657271 C40.2369944,21.4149234 40.2369944,26.0346617 37.3872748,28.8838579 M34.7683589,37.4775028 C34.7050318,37.6517832 34.6092561,37.8093159 34.4815551,37.9380636 C34.4648075,37.9532411 34.4464897,37.9678953 34.4297421,37.9825495 C28.9914617,42.6629981 20.927985,42.677129 15.472957,38.0275589 C15.4363215,37.9951103 15.3986393,37.9642318 15.3620037,37.9323065 C15.2395364,37.8072224 15.1463776,37.6554467 15.0835738,37.4879701 C15.0317607,37.3503252 14.9998355,37.2022131 14.9998355,37.0462505 C14.9998355,36.9572785 15.0097794,36.8714467 15.0265271,36.7877084 C15.1463776,36.2104374 15.6571813,35.7770916 16.2689944,35.7770916 C16.5317234,35.7770916 16.7756112,35.856643 16.9776299,35.9927178 C16.9781533,35.9932411 16.9792,35.9932411 16.9792,35.9932411 C21.7936299,39.1250542 28.0467888,39.1266243 32.8622654,35.9995215 C32.8706393,35.9942879 32.8790131,35.9895776 32.8873869,35.9838206 C33.0862654,35.8535028 33.3238729,35.7770916 33.5797981,35.7770916 C34.1952748,35.7770916 34.7076486,36.2146243 34.8238355,36.7966056 C34.8395364,36.8772037 34.848957,36.9604187 34.848957,37.0462505 C34.848957,37.1985495 34.8180785,37.3419514 34.7683589,37.4775028 M35.1708262,0.392942056 L14.677443,0.392942056 C6.57105047,0.392942056 -0.000314018692,6.96535327 -0.000314018692,15.0712224 L-0.000314018692,35.5646056 C-0.000314018692,43.6715215 6.57105047,50.242886 14.677443,50.242886 L35.1708262,50.242886 C43.2772187,50.242886 49.8496299,43.6715215 49.8496299,35.5646056 L49.8496299,15.0712224 C49.8496299,6.96535327 43.2772187,0.392942056 35.1708262,0.392942056" id="Fill-1"></path>
                        </g>
                        <path d="M49.9070953,1.45123738 C49.9070953,1.38058318 49.923843,1.31725607 49.958385,1.26073271 C49.9924037,1.20473271 50.0410766,1.17804112 50.1059738,1.17804112 L52.1622729,1.17804112 C52.2271701,1.17804112 52.2768897,1.20473271 52.3109084,1.26073271 C52.3454505,1.31725607 52.3621981,1.38058318 52.3621981,1.45123738 C52.3621981,1.52712523 52.3438804,1.59306916 52.308815,1.64906916 C52.2732262,1.70506916 52.2245533,1.73228411 52.1622729,1.73228411 L51.453114,1.73228411 L51.453114,4.53176075 C51.453114,4.59247103 51.4217121,4.64114393 51.3578617,4.6783028 C51.2945346,4.71441495 51.2212636,4.73168598 51.1370019,4.73168598 C51.0490766,4.73168598 50.9747589,4.71441495 50.9124785,4.6783028 C50.8517682,4.64114393 50.8208897,4.59247103 50.8208897,4.53176075 L50.8208897,1.73228411 L50.1059738,1.73228411 C50.0447402,1.73228411 49.9960673,1.70506916 49.9610019,1.65168598 C49.923843,1.59777944 49.9070953,1.53183551 49.9070953,1.45123738" id="Fill-4"></path>
                        <path d="M52.707671,4.53165607 L52.707671,1.49300187 C52.707671,1.38780561 52.7385495,1.30720748 52.7982131,1.25591776 C52.8578766,1.2051514 52.9337645,1.17793645 53.0237832,1.17793645 C53.1436336,1.17793645 53.2362692,1.19991776 53.300643,1.24126355 C53.3655402,1.28260935 53.4377645,1.3731514 53.5146991,1.51236636 L54.1123813,2.60305794 L54.7105869,1.51236636 C54.7885682,1.3731514 54.8602692,1.28260935 54.9277832,1.24126355 C54.9932037,1.19991776 55.0874093,1.17793645 55.2067364,1.17793645 C55.2972785,1.17793645 55.3731664,1.2051514 55.4328299,1.25591776 C55.4924935,1.30720748 55.5228486,1.38780561 55.5228486,1.49300187 L55.5228486,4.53165607 C55.5228486,4.59498318 55.4914467,4.64103925 55.4281196,4.67819813 C55.3642692,4.71483364 55.2915215,4.73158131 55.2067364,4.73158131 C55.1188112,4.73158131 55.0444935,4.71483364 54.9837832,4.67819813 C54.9215028,4.64103925 54.8906243,4.59498318 54.8906243,4.53165607 L54.8906243,2.44238505 L54.3222505,3.4524785 C54.2761944,3.53831028 54.2050168,3.57965607 54.107671,3.57965607 C54.0134654,3.57965607 53.9438579,3.53831028 53.8988486,3.4524785 L53.3398953,2.40313271 L53.3398953,4.53165607 C53.3398953,4.59498318 53.3079701,4.64103925 53.244643,4.67819813 C53.1813159,4.71483364 53.1080449,4.73158131 53.0237832,4.73158131 C52.9358579,4.73158131 52.8615402,4.71483364 52.8003065,4.67819813 C52.7385495,4.64103925 52.707671,4.59498318 52.707671,4.53165607" id="Fill-6"></path>
                    </g>
                </g>
                <g id="Group-2" transform="translate(64.000000, 13.000000)">
                    <path d="M14.2236,24.9291333 C13.5522667,25.1531333 11.6989333,25.4731333 9.46026667,25.4731333 C4.60293333,25.4731333 0.000266666667,22.9144667 0.000266666667,15.3071333 L0.000266666667,11.2804667 C0.000266666667,3.67313333 4.60293333,1.1458 9.46026667,1.1458 C11.6989333,1.1458 13.5522667,1.4658 14.2236,1.6898 C14.6709333,1.81713333 14.9262667,1.9478 14.9262667,2.3918 L14.9262667,5.49513333 C14.9262667,5.87713333 14.7349333,6.13246667 14.2876,6.13246667 L14.2236,6.13246667 C13.0096,6.03913333 11.2516,5.87713333 9.49293333,5.87713333 C7.2876,5.87713333 5.52893333,7.0278 5.52893333,11.2804667 L5.52893333,15.3071333 C5.52893333,19.5564667 7.2876,20.7104667 9.49293333,20.7104667 C11.2516,20.7104667 13.0096,20.5484667 14.2236,20.4524667 L14.2876,20.4524667 C14.7349333,20.4524667 14.9262667,20.7104667 14.9262667,21.0931333 L14.9262667,24.1924667 C14.9262667,24.6398 14.6709333,24.8018 14.2236,24.9291333" id="Fill-1" fill="#231F20"></path>
                    <path d="M22.722,25.184 L18.8233333,25.184 C18.4706667,25.184 18.152,24.864 18.152,24.5126667 L18.152,1.30733333 C18.152,0.956 18.4706667,0.666666667 18.8233333,0.666666667 L22.722,0.666666667 C23.0733333,0.666666667 23.33,0.956 23.33,1.30733333 L23.33,24.5126667 C23.33,24.864 23.0733333,25.184 22.722,25.184" id="Fill-3" fill="#231F20"></path>
                    <path d="M37.5192,14.9245333 C37.5192,12.3345333 36.5292,11.0225333 34.6745333,11.0225333 C32.8198667,11.0225333 31.7972,12.3345333 31.7972,14.9245333 L31.7972,17.1598667 C31.7972,19.7498667 32.8198667,21.0925333 34.6745333,21.0925333 C36.5292,21.0925333 37.5192,19.7498667 37.5192,17.1598667 L37.5192,14.9245333 Z M34.6745333,25.4732 C29.4965333,25.4732 26.6518667,22.2432 26.6518667,17.1598667 L26.6518667,14.9245333 C26.6518667,9.8412 29.4965333,6.61386667 34.6745333,6.61386667 C39.8525333,6.61386667 42.6665333,9.8412 42.6665333,14.9245333 L42.6665333,17.1598667 C42.6665333,22.2432 39.8525333,25.4732 34.6745333,25.4732 Z" id="Fill-5" fill="#231F20"></path>
                    <g id="Group-9" transform="translate(45.333333, 6.806600)">
                        <mask id="mask-2" fill="white">
                            <use xlink:href="#path-1"></use>
                        </mask>
                        <g id="Clip-8"></g>
                        <path d="M8.57973333,18.6668 L8.13173333,18.6668 C6.11906667,18.6668 0.493066667,18.0574667 0.493066667,10.5461333 L0.493066667,0.734133333 C0.493066667,0.3828 0.747733333,0.0628 1.10106667,0.0628 L5.0324,0.0628 C5.38373333,0.0628 5.67106667,0.3828 5.67106667,0.734133333 L5.67106667,10.5461333 C5.67106667,13.5834667 6.6304,14.2861333 8.13173333,14.2861333 L8.57973333,14.2861333 C10.0824,14.2861333 11.0417333,13.5834667 11.0417333,10.5461333 L11.0417333,0.734133333 C11.0417333,0.3828 11.3297333,0.0628 11.6804,0.0628 L15.6117333,0.0628 C15.9637333,0.0628 16.2197333,0.3828 16.2197333,0.734133333 L16.2197333,10.5461333 C16.2197333,18.0574667 10.5937333,18.6668 8.57973333,18.6668" id="Fill-7" fill="#231F20" mask="url(#mask-2)"></path>
                    </g>
                    <g id="Group-12" transform="translate(64.000000, 0.139933)">
                        <mask id="mask-4" fill="white">
                            <use xlink:href="#path-3"></use>
                        </mask>
                        <g id="Clip-11"></g>
                        <path d="M11.292,10.9171333 C10.524,10.8204667 9.43733333,10.7551333 8.67066667,10.7551333 C6.40133333,10.7551333 5.79333333,12.4184667 5.79333333,14.6571333 L5.79333333,17.1504667 C5.79333333,19.4171333 6.40133333,21.0804667 8.67066667,21.0804667 C9.72466667,21.0804667 10.684,20.9838 11.292,20.8878 L11.292,10.9171333 Z M15.4466667,24.5004667 C13.6253333,24.9478 11.132,25.3338 8.67066667,25.3338 C3.49266667,25.3338 0.648,22.3271333 0.648,17.1504667 L0.648,14.6571333 C0.648,9.63646667 3.26933333,6.4738 8.67066667,6.4738 C9.31,6.4738 10.3653333,6.5678 11.292,6.6978 L11.292,1.16713333 C11.292,0.8158 11.5793333,0.527133333 11.9306667,0.527133333 L15.7673333,0.527133333 C16.1186667,0.527133333 16.4386667,0.8158 16.4386667,1.16713333 L16.4386667,23.5738 C16.4386667,24.0864667 16.31,24.3104667 15.4466667,24.5004667 Z" id="Fill-10" fill="#231F20" mask="url(#mask-4)"></path>
                    </g>
                    <path d="M96.7050667,8.62573333 C96.7050667,6.6764 95.2017333,5.78106667 92.5170667,5.78106667 C92.0697333,5.78106667 90.4077333,5.8464 90.0237333,5.87706667 L90.0237333,12.0144 C90.3750667,12.0457333 91.9417333,12.0797333 92.2930667,12.0797333 C95.6497333,12.0797333 96.7050667,11.2157333 96.7050667,9.0424 L96.7050667,8.62573333 Z M102.4584,25.1837333 L97.5677333,25.1837333 C97.2164,25.1837333 97.0877333,24.8637333 96.9284,24.5437333 L92.6444,16.4570667 L92.2930667,16.4910667 C91.6217333,16.4910667 90.6317333,16.4264 90.0237333,16.4264 L90.0237333,24.5437333 C90.0237333,24.8950667 89.7364,25.1837333 89.3850667,25.1837333 L85.2297333,25.1837333 C84.8770667,25.1837333 84.5890667,24.8950667 84.5890667,24.5437333 L84.5890667,3.09773333 C84.5890667,2.00973333 85.0370667,1.72373333 86.0284,1.56173333 C87.4990667,1.3384 90.2150667,1.14573333 92.5170667,1.14573333 C97.9517333,1.14573333 102.137733,2.9704 102.137733,8.62573333 L102.137733,9.0424 C102.137733,12.4310667 100.3484,14.5077333 98.0150667,15.4344 L102.8424,24.4504 C102.905733,24.5777333 102.937067,24.7057333 102.937067,24.8017333 C102.937067,25.0257333 102.809733,25.1837333 102.4584,25.1837333 Z" id="Fill-13" fill="#231F20"></path>
                    <path d="M114.9964,14.3152 C114.9964,11.9525333 113.909733,10.7678667 112.119067,10.7678667 C110.3604,10.7678667 109.177733,11.9832 109.177733,14.3152 L109.177733,14.4458667 L114.9964,14.4458667 L114.9964,14.3152 Z M119.375067,17.6418667 L109.177733,17.6418667 L109.177733,17.7038667 C109.177733,19.5258667 109.945733,21.1892 112.4704,21.1892 C114.4844,21.1892 117.329733,21.0272 118.607733,20.8998667 L118.703733,20.8998667 C119.055067,20.8998667 119.311733,21.0618667 119.311733,21.4125333 L119.311733,23.8412 C119.311733,24.3538667 119.1824,24.5778667 118.639733,24.7052 C116.5944,25.2152 114.867067,25.4732 112.0864,25.4732 C108.2184,25.4732 104.063733,23.4272 104.063733,17.2565333 L104.063733,15.0212 C104.063733,9.87253333 107.0684,6.61386667 112.151733,6.61386667 C117.393067,6.61386667 120.047067,10.1925333 120.047067,15.0212 L120.047067,16.8738667 C120.047067,17.3525333 119.7904,17.6418667 119.375067,17.6418667 Z" id="Fill-15" fill="#231F20"></path>
                    <g id="Group-19" transform="translate(122.666667, 6.139933)">
                        <mask id="mask-6" fill="white">
                            <use xlink:href="#path-5"></use>
                        </mask>
                        <g id="Clip-18"></g>
                        <path d="M6.70866667,19.3334667 C4.95066667,19.3334667 2.52066667,19.0754667 0.891333333,18.6274667 C0.508,18.5341333 0.284,18.2761333 0.284,17.8941333 L0.284,15.3041333 C0.284,14.9841333 0.508,14.6974667 0.891333333,14.6974667 L1.01933333,14.6974667 C2.74466667,14.9214667 5.42933333,15.1454667 6.452,15.1454667 C7.98666667,15.1454667 8.33933333,14.7288 8.33933333,13.8988 C8.33933333,13.4168 8.052,13.0654667 7.156,12.5554667 L3.00133333,10.1588 C1.21,9.13613333 0.156666667,7.50346667 0.156666667,5.4268 C0.156666667,2.19946667 2.29666667,0.474133333 6.70866667,0.474133333 C9.23333333,0.474133333 10.7673333,0.791466667 12.398,1.20813333 C12.782,1.3048 13.006,1.55946667 13.006,1.9448 L13.006,4.53146667 C13.006,4.9168 12.8133333,5.1408 12.4946667,5.1408 L12.3673333,5.1408 C11.4393333,5.01346667 8.69066667,4.72413333 7.06,4.72413333 C5.81333333,4.72413333 5.36533333,4.9168 5.36533333,5.6508 C5.36533333,6.12946667 5.71666667,6.38746667 6.35733333,6.77013333 L10.3213333,9.03946667 C12.9733333,10.5721333 13.5486667,12.2354667 13.5486667,13.9608 C13.5486667,16.9674667 11.3753333,19.3334667 6.70866667,19.3334667" id="Fill-17" fill="#231F20" mask="url(#mask-6)"></path>
                    </g>
                    <g id="Group-22" transform="translate(139.333333, 2.806600)">
                        <mask id="mask-8" fill="white">
                            <use xlink:href="#path-7"></use>
                        </mask>
                        <g id="Clip-21"></g>
                        <path d="M9.63313333,7.93013333 L5.25446667,7.93013333 L5.25446667,17.4214667 C5.25446667,18.5414667 5.7658,18.7341333 7.1398,18.7341333 L9.53646667,18.7341333 C9.9518,18.7341333 10.2084667,18.9268 10.2084667,19.2774667 L10.2084667,21.7368 C10.2084667,22.0881333 9.98446667,22.3121333 9.5698,22.3774667 C8.6418,22.5361333 7.10713333,22.6668 5.73313333,22.6668 C2.15313333,22.6668 0.0438,21.5474667 0.0438,17.3908 L0.0438,1.34546667 C0.0438,0.994133333 0.331133333,0.770133333 0.682466667,0.7048 L4.58246667,0.0334666667 L4.67913333,0.0334666667 C4.96646667,0.0334666667 5.25446667,0.353466667 5.25446667,0.673466667 L5.25446667,4.0628 L9.63313333,4.0628 C9.98446667,4.0628 10.2718,4.34813333 10.2718,4.70013333 L10.2718,7.28946667 C10.2718,7.6408 9.98446667,7.93013333 9.63313333,7.93013333" id="Fill-20" fill="#231F20" mask="url(#mask-8)"></path>
                    </g>
                </g>
            </g>
        </g>
    </g>
</svg>