<?xml version="1.0" encoding="UTF-8"?>
<svg width="173px" height="41px" viewBox="0 0 173 41" version="1.1" xmlns="http://www.w3.org/2000/svg" xmlns:xlink="http://www.w3.org/1999/xlink">
    <!-- Generator: sketchtool 50.2 (55047) - http://www.bohemiancoding.com/sketch -->
    <title>49932471-655F-404E-B049-C61D30FFA96A</title>
    <desc>Created with sketchtool.</desc>
    <defs>
        <polygon id="path-1" points="0.398246154 0.0507230769 13.1005538 0.0507230769 13.1005538 15.0769231 0.398246154 15.0769231"></polygon>
        <polygon id="path-3" points="0.523384615 0.425761538 13.2773846 0.425761538 13.2773846 20.4615385 0.523384615 20.4615385"></polygon>
        <polygon id="path-5" points="0.126538462 0.382953846 10.9431538 0.382953846 10.9431538 15.6153846 0.126538462 15.6153846"></polygon>
        <polygon id="path-7" points="0.0353769231 0.0270307692 8.29645385 0.0270307692 8.29645385 18.3076923 0.0353769231 18.3076923"></polygon>
    </defs>
    <g id="Symbols" stroke="none" stroke-width="1" fill="none" fill-rule="evenodd">
        <g id="Header" transform="translate(-40.000000, -60.000000)">
            <g id="cr-logo-for-menu" transform="translate(40.000000, 60.000000)">
                <g id="Group" fill="#4C9142">
                    <g id="Page-1">
                        <g id="Group-3" transform="translate(0.000000, 0.105130)">
                            <path d="M30.1974142,23.3292699 C29.0438183,24.4828659 27.530067,25.0577616 26.0175839,25.0552253 L14.2317981,25.0552253 C12.7239649,25.0552253 11.215709,24.4799068 10.065072,23.3292699 C7.76379813,21.027996 7.76379813,17.2966689 10.065072,14.995395 C11.215709,13.844758 12.7239649,13.2694395 14.2317981,13.2694395 C14.2317981,11.7611836 14.8075393,10.2529277 15.9573308,9.10229073 C18.2598729,6.80101682 21.9907773,6.80101682 24.2920512,9.10229073 C25.4426881,10.252505 26.0175839,11.7611836 26.0175839,13.2694395 L26.0175839,13.2698623 C27.530067,13.2664805 29.0438183,13.8413763 30.1974142,14.995395 C32.4991109,17.2966689 32.4991109,21.027996 30.1974142,23.3292699 M28.082136,30.2702907 C28.0309872,30.4110556 27.9536299,30.5382936 27.8504868,30.6422821 C27.8369599,30.6545409 27.8221648,30.666377 27.8086378,30.6782131 C23.4161806,34.4585754 16.9033725,34.4699888 12.4973884,30.7145668 C12.4677981,30.6883583 12.4373625,30.663418 12.4077723,30.6376322 C12.3088564,30.5366027 12.2336127,30.4140147 12.1828866,30.2787451 C12.1410375,30.1675704 12.1152518,30.0479413 12.1152518,29.9219715 C12.1152518,29.8501096 12.1232834,29.7807839 12.1368104,29.7131491 C12.2336127,29.2468917 12.6461849,28.8968817 13.1403416,28.8968817 C13.3525458,28.8968817 13.5495321,28.9611347 13.7127011,29.0710413 C13.7131238,29.071464 13.7139692,29.071464 13.7139692,29.071464 C17.6025472,31.6010053 22.6531756,31.6022735 26.542599,29.0765366 C26.5493625,29.0723094 26.556126,29.068505 26.5628894,29.0638551 C26.7235221,28.9585984 26.9154358,28.8968817 27.1221446,28.8968817 C27.6192604,28.8968817 28.0331008,29.2502735 28.1269441,29.7203353 C28.1396256,29.7854338 28.1472345,29.8526459 28.1472345,29.9219715 C28.1472345,30.0449823 28.1222942,30.1608069 28.082136,30.2702907 M28.4072058,0.317376276 L11.8548578,0.317376276 C5.30738692,0.317376276 -0.000253630482,5.62586226 -0.000253630482,12.1729104 L-0.000253630482,28.7252584 C-0.000253630482,35.273152 5.30738692,40.5807925 11.8548578,40.5807925 L28.4072058,40.5807925 C34.9546766,40.5807925 40.2631626,35.273152 40.2631626,28.7252584 L40.2631626,12.1729104 C40.2631626,5.62586226 34.9546766,0.317376276 28.4072058,0.317376276" id="Fill-1"></path>
                        </g>
                        <path d="M40.309577,1.17215327 C40.309577,1.11508641 40.323104,1.0639376 40.3510033,1.01828411 C40.3784799,0.973053343 40.4177927,0.951494752 40.4702096,0.951494752 L42.1310666,0.951494752 C42.1834835,0.951494752 42.2236417,0.973053343 42.2511183,1.01828411 C42.2790177,1.0639376 42.2925446,1.11508641 42.2925446,1.17215327 C42.2925446,1.2334473 42.2777495,1.28670971 42.2494275,1.33194047 C42.2206827,1.37717124 42.1813699,1.39915255 42.1310666,1.39915255 L41.5582844,1.39915255 L41.5582844,3.6602683 C41.5582844,3.70930352 41.5329214,3.74861625 41.4813498,3.77862919 C41.430201,3.80779669 41.3710206,3.82174637 41.302963,3.82174637 C41.2319465,3.82174637 41.1719206,3.80779669 41.1216173,3.77862919 C41.072582,3.74861625 41.0476417,3.70930352 41.0476417,3.6602683 L41.0476417,1.39915255 L40.4702096,1.39915255 C40.4207517,1.39915255 40.381439,1.37717124 40.3531169,1.33405406 C40.323104,1.29051416 40.309577,1.23725176 40.309577,1.17215327" id="Fill-4"></path>
                        <path d="M42.5715804,3.66018375 L42.5715804,1.20588613 C42.5715804,1.12091991 42.5965208,1.05582142 42.6447106,1.01439511 C42.6929004,0.973391517 42.7541944,0.951410208 42.8269018,0.951410208 C42.9237041,0.951410208 42.9985251,0.969164342 43.0505193,1.00255902 C43.1029363,1.0359537 43.1612713,1.10908382 43.2234108,1.22152667 L43.7061541,2.10246988 L44.1893202,1.22152667 C44.2523051,1.10908382 44.3102174,1.0359537 44.364748,1.00255902 C44.4175876,0.969164342 44.4936768,0.951410208 44.5900564,0.951410208 C44.6631865,0.951410208 44.7244805,0.973391517 44.7726703,1.01439511 C44.8208601,1.05582142 44.8453777,1.12091991 44.8453777,1.20588613 L44.8453777,3.66018375 C44.8453777,3.71133257 44.8200147,3.7485317 44.7688659,3.77854464 C44.7172943,3.80813487 44.6585366,3.82166183 44.5900564,3.82166183 C44.5190398,3.82166183 44.4590139,3.80813487 44.4099787,3.77854464 C44.3596753,3.7485317 44.334735,3.71133257 44.334735,3.66018375 L44.334735,1.97269561 L43.8756638,2.78854033 C43.8384647,2.857866 43.7809751,2.89126068 43.7023497,2.89126068 C43.6262605,2.89126068 43.5700391,2.857866 43.5336854,2.78854033 L43.0822231,1.9409918 L43.0822231,3.66018375 C43.0822231,3.71133257 43.0564374,3.7485317 43.0052886,3.77854464 C42.9541398,3.80813487 42.8949593,3.82166183 42.8269018,3.82166183 C42.7558853,3.82166183 42.6958594,3.80813487 42.6464014,3.77854464 C42.5965208,3.7485317 42.5715804,3.71133257 42.5715804,3.66018375" id="Fill-6"></path>
                    </g>
                </g>
                <g id="Group-2" transform="translate(51.692308, 10.500000)">
                    <path d="M11.4882923,20.1350692 C10.9460615,20.3159923 9.44913846,20.5744538 7.64098462,20.5744538 C3.71775385,20.5744538 0.000215384615,18.5078385 0.000215384615,12.3634538 L0.000215384615,9.11114615 C0.000215384615,2.96676154 3.71775385,0.925453846 7.64098462,0.925453846 C9.44913846,0.925453846 10.9460615,1.18391538 11.4882923,1.36483846 C11.8496,1.46768462 12.0558308,1.57322308 12.0558308,1.93183846 L12.0558308,4.43837692 C12.0558308,4.74691538 11.9012923,4.95314615 11.5399846,4.95314615 L11.4882923,4.95314615 C10.5077538,4.87776154 9.08783077,4.74691538 7.66736923,4.74691538 C5.88613846,4.74691538 4.46567692,5.6763 4.46567692,9.11114615 L4.46567692,12.3634538 C4.46567692,15.7956077 5.88613846,16.7276846 7.66736923,16.7276846 C9.08783077,16.7276846 10.5077538,16.5968385 11.4882923,16.5193 L11.5399846,16.5193 C11.9012923,16.5193 12.0558308,16.7276846 12.0558308,17.0367615 L12.0558308,19.5400692 C12.0558308,19.9013769 11.8496,20.0322231 11.4882923,20.1350692" id="Fill-1" fill="#231F20"></path>
                    <path d="M18.3523846,20.3409231 L15.2034615,20.3409231 C14.9186154,20.3409231 14.6612308,20.0824615 14.6612308,19.7986923 L14.6612308,1.05592308 C14.6612308,0.772153846 14.9186154,0.538461538 15.2034615,0.538461538 L18.3523846,0.538461538 C18.6361538,0.538461538 18.8434615,0.772153846 18.8434615,1.05592308 L18.8434615,19.7986923 C18.8434615,20.0824615 18.6361538,20.3409231 18.3523846,20.3409231" id="Fill-3" fill="#231F20"></path>
                    <path d="M30.3039692,12.0544308 C30.3039692,9.96250769 29.5043538,8.90281538 28.0063538,8.90281538 C26.5083538,8.90281538 25.6823538,9.96250769 25.6823538,12.0544308 L25.6823538,13.8598923 C25.6823538,15.9518154 26.5083538,17.0362769 28.0063538,17.0362769 C29.5043538,17.0362769 30.3039692,15.9518154 30.3039692,13.8598923 L30.3039692,12.0544308 Z M28.0063538,20.5745077 C23.8241231,20.5745077 21.5265077,17.9656615 21.5265077,13.8598923 L21.5265077,12.0544308 C21.5265077,7.94866154 23.8241231,5.34196923 28.0063538,5.34196923 C32.1885846,5.34196923 34.4614308,7.94866154 34.4614308,12.0544308 L34.4614308,13.8598923 C34.4614308,17.9656615 32.1885846,20.5745077 28.0063538,20.5745077 Z" id="Fill-5" fill="#231F20"></path>
                    <g id="Group-9" transform="translate(36.615385, 5.497638)">
                        <mask id="mask-2" fill="white">
                            <use xlink:href="#path-1"></use>
                        </mask>
                        <g id="Clip-8"></g>
                        <path d="M6.92978462,15.0770308 L6.56793846,15.0770308 C4.94232308,15.0770308 0.398246154,14.5848769 0.398246154,8.51803077 L0.398246154,0.592953846 C0.398246154,0.309184615 0.603938462,0.0507230769 0.889323077,0.0507230769 L4.06463077,0.0507230769 C4.3484,0.0507230769 4.58047692,0.309184615 4.58047692,0.592953846 L4.58047692,8.51803077 C4.58047692,10.9712615 5.35532308,11.5388 6.56793846,11.5388 L6.92978462,11.5388 C8.14347692,11.5388 8.91832308,10.9712615 8.91832308,8.51803077 L8.91832308,0.592953846 C8.91832308,0.309184615 9.15093846,0.0507230769 9.43416923,0.0507230769 L12.6094769,0.0507230769 C12.8937846,0.0507230769 13.1005538,0.309184615 13.1005538,0.592953846 L13.1005538,8.51803077 C13.1005538,14.5848769 8.55647692,15.0770308 6.92978462,15.0770308" id="Fill-7" fill="#231F20" mask="url(#mask-2)"></path>
                    </g>
                    <g id="Group-12" transform="translate(51.692308, 0.113023)">
                        <mask id="mask-4" fill="white">
                            <use xlink:href="#path-3"></use>
                        </mask>
                        <g id="Clip-11"></g>
                        <path d="M9.12046154,8.81768462 C8.50015385,8.73960769 7.62246154,8.68683846 7.00323077,8.68683846 C5.17030769,8.68683846 4.67923077,10.0303 4.67923077,11.8384538 L4.67923077,13.8523 C4.67923077,15.6830692 5.17030769,17.0265308 7.00323077,17.0265308 C7.85453846,17.0265308 8.62938462,16.9484538 9.12046154,16.8709154 L9.12046154,8.81768462 Z M12.4761538,19.7888385 C11.0050769,20.1501462 8.99123077,20.4619154 7.00323077,20.4619154 C2.821,20.4619154 0.523384615,18.0334538 0.523384615,13.8523 L0.523384615,11.8384538 C0.523384615,7.7833 2.64061538,5.22883846 7.00323077,5.22883846 C7.51961538,5.22883846 8.372,5.30476154 9.12046154,5.40976154 L9.12046154,0.942684615 C9.12046154,0.658915385 9.35253846,0.425761538 9.63630769,0.425761538 L12.7351538,0.425761538 C13.0189231,0.425761538 13.2773846,0.658915385 13.2773846,0.942684615 L13.2773846,19.0403769 C13.2773846,19.4544538 13.1734615,19.6353769 12.4761538,19.7888385 Z" id="Fill-10" fill="#231F20" mask="url(#mask-4)"></path>
                    </g>
                    <path d="M78.1079385,6.96693846 C78.1079385,5.39247692 76.8937077,4.66932308 74.7253231,4.66932308 C74.3640154,4.66932308 73.0216308,4.72209231 72.7114769,4.74686154 L72.7114769,9.70393846 C72.9952462,9.72924615 74.2606308,9.75670769 74.5444,9.75670769 C77.2555538,9.75670769 78.1079385,9.05886154 78.1079385,7.30347692 L78.1079385,6.96693846 Z M82.7548615,20.3407077 L78.8047077,20.3407077 C78.5209385,20.3407077 78.4170154,20.0822462 78.2883231,19.8237846 L74.8281692,13.2922462 L74.5444,13.3197077 C74.0021692,13.3197077 73.2025538,13.2674769 72.7114769,13.2674769 L72.7114769,19.8237846 C72.7114769,20.1075538 72.4794,20.3407077 72.1956308,20.3407077 L68.8394,20.3407077 C68.5545538,20.3407077 68.3219385,20.1075538 68.3219385,19.8237846 L68.3219385,2.50201538 C68.3219385,1.62324615 68.6837846,1.39224615 69.4844769,1.2614 C70.6723231,1.08101538 72.8660154,0.9254 74.7253231,0.9254 C79.1148615,0.9254 82.4958615,2.39916923 82.4958615,6.96693846 L82.4958615,7.30347692 C82.4958615,10.0404769 81.0506308,11.7177846 79.1660154,12.4662462 L83.0650154,19.7484 C83.1161692,19.8512462 83.1414769,19.9546308 83.1414769,20.0321692 C83.1414769,20.2130923 83.0386308,20.3407077 82.7548615,20.3407077 Z" id="Fill-13" fill="#231F20"></path>
                    <path d="M92.8817077,11.5622769 C92.8817077,9.65396923 92.0040154,8.69712308 90.5577077,8.69712308 C89.1372462,8.69712308 88.1820154,9.67873846 88.1820154,11.5622769 L88.1820154,11.6678154 L92.8817077,11.6678154 L92.8817077,11.5622769 Z M96.4183231,14.2492 L88.1820154,14.2492 L88.1820154,14.2992769 C88.1820154,15.7708923 88.8023231,17.1143538 90.8414769,17.1143538 C92.4681692,17.1143538 94.7663231,16.9835077 95.7985538,16.8806615 L95.8760923,16.8806615 C96.1598615,16.8806615 96.3671692,17.0115077 96.3671692,17.2947385 L96.3671692,19.2563538 C96.3671692,19.6704308 96.2627077,19.8513538 95.8244,19.9542 C94.1724,20.3661231 92.7772462,20.5745077 90.5313231,20.5745077 C87.4071692,20.5745077 84.0514769,18.9219692 84.0514769,13.9379692 L84.0514769,12.1325077 C84.0514769,7.97396923 86.4783231,5.34196923 90.5840923,5.34196923 C94.8174769,5.34196923 96.9610923,8.23243077 96.9610923,12.1325077 L96.9610923,13.6288923 C96.9610923,14.0155077 96.7537846,14.2492 96.4183231,14.2492 Z" id="Fill-15" fill="#231F20"></path>
                    <g id="Group-19" transform="translate(99.076923, 4.959177)">
                        <mask id="mask-6" fill="white">
                            <use xlink:href="#path-5"></use>
                        </mask>
                        <g id="Clip-18"></g>
                        <path d="M5.41853846,15.6154923 C3.99861538,15.6154923 2.03592308,15.4071077 0.719923077,15.0452615 C0.410307692,14.9698769 0.229384615,14.7614923 0.229384615,14.4529538 L0.229384615,12.3610308 C0.229384615,12.1025692 0.410307692,11.8710308 0.719923077,11.8710308 L0.823307692,11.8710308 C2.21684615,12.0519538 4.38523077,12.2328769 5.21123077,12.2328769 C6.45076923,12.2328769 6.73561538,11.8963385 6.73561538,11.2259538 C6.73561538,10.8366462 6.50353846,10.5528769 5.77984615,10.1409538 L2.42415385,8.20518462 C0.977307692,7.37918462 0.126538462,6.06049231 0.126538462,4.38318462 C0.126538462,1.77649231 1.855,0.382953846 5.41853846,0.382953846 C7.45769231,0.382953846 8.69669231,0.639261538 10.0137692,0.9758 C10.3239231,1.05387692 10.5048462,1.25956923 10.5048462,1.5708 L10.5048462,3.66003077 C10.5048462,3.97126154 10.3492308,4.15218462 10.0918462,4.15218462 L9.989,4.15218462 C9.23946154,4.04933846 7.01938462,3.81564615 5.70230769,3.81564615 C4.69538462,3.81564615 4.33353846,3.97126154 4.33353846,4.56410769 C4.33353846,4.95072308 4.61730769,5.15910769 5.13476923,5.46818462 L8.33646154,7.30110769 C10.4784615,8.53903077 10.9431538,9.88249231 10.9431538,11.2760308 C10.9431538,13.7044923 9.18776923,15.6154923 5.41853846,15.6154923" id="Fill-17" fill="#231F20" mask="url(#mask-6)"></path>
                    </g>
                    <g id="Group-22" transform="translate(112.538462, 2.266869)">
                        <mask id="mask-8" fill="white">
                            <use xlink:href="#path-7"></use>
                        </mask>
                        <g id="Clip-21"></g>
                        <path d="M7.78060769,6.40510769 L4.24399231,6.40510769 L4.24399231,14.0711846 C4.24399231,14.9758 4.65699231,15.1314154 5.76676154,15.1314154 L7.70253077,15.1314154 C8.03799231,15.1314154 8.2453,15.2870308 8.2453,15.5702615 L8.2453,17.5566462 C8.2453,17.8404154 8.06437692,18.0213385 7.72945385,18.0741077 C6.97991538,18.2022615 5.74037692,18.3078 4.63060769,18.3078 C1.73906923,18.3078 0.0353769231,17.4037231 0.0353769231,14.0464154 L0.0353769231,1.08672308 C0.0353769231,0.802953846 0.267453846,0.622030769 0.551223077,0.569261538 L3.70122308,0.0270307692 L3.7793,0.0270307692 C4.01137692,0.0270307692 4.24399231,0.285492308 4.24399231,0.543953846 L4.24399231,3.28149231 L7.78060769,3.28149231 C8.06437692,3.28149231 8.29645385,3.51195385 8.29645385,3.79626154 L8.29645385,5.88764615 C8.29645385,6.17141538 8.06437692,6.40510769 7.78060769,6.40510769" id="Fill-20" fill="#231F20" mask="url(#mask-8)"></path>
                    </g>
                </g>
            </g>
        </g>
    </g>
</svg>